<svg xmlns="http://www.w3.org/2000/svg" viewBox="0 0 64 64">
  <rect width="64" height="64" rx="14" fill="#0F1A18"/>
  <line x1="20" y1="18" x2="32" y2="32" stroke="#26403E" stroke-width="1.6"/>
  <line x1="32" y1="32" x2="46" y2="45" stroke="#26403E" stroke-width="1.6"/>
  <path d="M32 11 L35 29 L53 32 L35 35 L32 53 L29 35 L11 32 L29 29 Z" fill="#C9B79A"/>
  <circle cx="32" cy="32" r="3.2" fill="#ECE6D9"/>
  <path d="M20 14 l1.3 4 4 1.3 -4 1.3 -1.3 4 -1.3 -4 -4 -1.3 4 -1.3 Z" fill="#7FCCC4"/>
  <path d="M46 41 l1.1 3.2 3.2 1.1 -3.2 1.1 -1.1 3.2 -1.1 -3.2 -3.2 -1.1 3.2 -1.1 Z" fill="#5BB5AD"/>
</svg>
